<svg width="49" height="49" viewBox="0 0 49 49" fill="none" xmlns="http://www.w3.org/2000/svg">
<path d="M24.5 0C10.9676 0 0 10.9676 0 24.5C0 38.0324 10.9676 49 24.5 49C38.0324 49 49 38.0324 49 24.5C49 10.9676 38.0324 0 24.5 0ZM29.9072 20.3465L29.6297 24.0119H25.8686V36.7404H21.1217V24.0119H18.5855V20.3465H21.1217V17.8869C21.1217 16.8055 21.1504 15.1307 21.9352 14.0875C22.7678 12.9869 23.9066 12.2404 25.8686 12.2404C29.065 12.2404 30.4049 12.6998 30.4049 12.6998L29.7732 16.4514C29.7732 16.4514 28.7205 16.1451 27.7348 16.1451C26.749 16.1451 25.8686 16.4992 25.8686 17.485V20.3465H29.9072Z" fill="white"/>
</svg>
