<svg width="49" height="49" viewBox="0 0 49 49" fill="none" xmlns="http://www.w3.org/2000/svg">
<path d="M24.5 49C38.031 49 49 38.031 49 24.5C49 10.969 38.031 0 24.5 0C10.969 0 0 10.969 0 24.5C0 38.031 10.969 49 24.5 49Z" fill="white"/>
<path d="M24.5 12.4485C28.4251 12.4485 28.8901 12.4634 30.4401 12.5341C31.8733 12.5995 32.6517 12.839 33.1697 13.0403C33.8559 13.307 34.3455 13.6255 34.8599 14.1399C35.3744 14.6544 35.6929 15.144 35.9596 15.8301C36.1608 16.3482 36.4003 17.1265 36.4657 18.5597C36.5364 20.1098 36.5514 20.5747 36.5514 24.4997C36.5514 28.4248 36.5364 28.8897 36.4657 30.4398C36.4003 31.8731 36.1608 32.6513 35.9596 33.1694C35.6929 33.8555 35.3744 34.3453 34.86 34.8596C34.3455 35.374 33.8559 35.6925 33.1697 35.9592C32.6517 36.1606 31.8733 36.3999 30.4401 36.4654C28.8903 36.536 28.4254 36.5511 24.5 36.5511C20.5747 36.5511 20.1099 36.536 18.56 36.4654C17.1268 36.3999 16.3484 36.1606 15.8304 35.9592C15.1442 35.6925 14.6546 35.374 14.1402 34.8596C13.6258 34.3453 13.3072 33.8555 13.0405 33.1694C12.8393 32.6513 12.5998 31.8731 12.5344 30.4398C12.4637 28.8897 12.4487 28.4248 12.4487 24.4997C12.4487 20.5747 12.4637 20.1098 12.5344 18.5597C12.5998 17.1265 12.8393 16.3482 13.0405 15.8301C13.3072 15.144 13.6257 14.6544 14.1402 14.14C14.6546 13.6255 15.1442 13.307 15.8304 13.0403C16.3484 12.839 17.1268 12.5995 18.56 12.5341C20.11 12.4634 20.575 12.4485 24.5 12.4485ZM24.5 9.7998C20.5078 9.7998 20.0071 9.81671 18.4392 9.88825C16.8747 9.95967 15.806 10.2081 14.8709 10.5716C13.9043 10.9471 13.0845 11.4498 12.2673 12.2671C11.45 13.0843 10.9474 13.904 10.5718 14.8707C10.2083 15.8057 9.95991 16.8743 9.88849 18.439C9.81695 20.0069 9.80005 20.5075 9.80005 24.4997C9.80005 28.4921 9.81695 28.9926 9.88849 30.5605C9.95991 32.1252 10.2083 33.1938 10.5718 34.1288C10.9474 35.0954 11.45 35.9152 12.2673 36.7325C13.0845 37.5497 13.9043 38.0523 14.8709 38.4279C15.806 38.7914 16.8747 39.0398 18.4392 39.1112C20.0071 39.1828 20.5078 39.1997 24.5 39.1997C28.4923 39.1997 28.993 39.1828 30.5609 39.1112C32.1254 39.0398 33.1941 38.7914 34.1292 38.4279C35.0958 38.0523 35.9156 37.5497 36.7328 36.7325C37.55 35.9152 38.0527 35.0954 38.4283 34.1288C38.7918 33.1938 39.0402 32.1252 39.1116 30.5605C39.1831 28.9926 39.2001 28.4921 39.2001 24.4997C39.2001 20.5075 39.1831 20.0069 39.1116 18.439C39.0402 16.8743 38.7918 15.8057 38.4283 14.8707C38.0527 13.904 37.55 13.0843 36.7328 12.2671C35.9156 11.4498 35.0958 10.9471 34.1292 10.5716C33.1941 10.2081 32.1254 9.95967 30.5609 9.88825C28.993 9.81671 28.4923 9.7998 24.5 9.7998Z" fill="#222222"/>
<path d="M24.5073 16.958C20.3383 16.958 16.9587 20.3375 16.9587 24.5066C16.9587 28.6756 20.3383 32.0552 24.5073 32.0552C28.6764 32.0552 32.056 28.6756 32.056 24.5066C32.056 20.3375 28.6764 16.958 24.5073 16.958ZM24.5073 29.4066C21.8012 29.4066 19.6073 27.2127 19.6073 24.5066C19.6073 21.8004 21.8012 19.6066 24.5073 19.6066C27.2136 19.6066 29.4073 21.8004 29.4073 24.5066C29.4073 27.2127 27.2136 29.4066 24.5073 29.4066Z" fill="#222222"/>
<path d="M34.1171 16.6557C34.1171 17.6298 33.3274 18.4197 32.3531 18.4197C31.3789 18.4197 30.5891 17.6298 30.5891 16.6557C30.5891 15.6815 31.3789 14.8916 32.3531 14.8916C33.3274 14.8916 34.1171 15.6815 34.1171 16.6557Z" fill="#222222"/>
</svg>
