<svg width="49" height="49" viewBox="0 0 49 49" fill="none" xmlns="http://www.w3.org/2000/svg">
<path d="M24.5 0C10.9676 0 0 10.9676 0 24.5C0 38.0324 10.9676 49 24.5 49C38.0324 49 49 38.0324 49 24.5C49 10.9676 38.0324 0 24.5 0ZM34.2809 20.691C34.2904 20.9016 34.2904 21.1217 34.2904 21.3418C34.2904 27.9932 29.2277 35.6686 19.9637 35.6686C17.1213 35.6686 14.4703 34.8359 12.25 33.41C12.6424 33.4578 13.0443 33.477 13.4559 33.477C15.8102 33.477 17.9826 32.673 19.7053 31.3236C17.5041 31.2854 15.6379 29.8307 15.0063 27.8305C15.3125 27.8879 15.6283 27.9166 15.9537 27.9166C16.4131 27.9166 16.8629 27.8592 17.284 27.7348C14.9775 27.2754 13.2453 25.2369 13.2453 22.7965V22.7391C13.9248 23.1123 14.7 23.342 15.523 23.3707C14.1736 22.4711 13.2836 20.9207 13.2836 19.1789C13.2836 18.2602 13.5324 17.3893 13.9631 16.6428C16.4514 19.6957 20.1551 21.6959 24.3373 21.9064C24.2512 21.5428 24.2033 21.16 24.2033 20.758C24.2033 17.9826 26.4619 15.724 29.2373 15.724C30.6824 15.724 31.9936 16.3365 32.9123 17.3127C34.0607 17.083 35.1326 16.6715 36.1088 16.0877C35.7355 17.2648 34.9316 18.2506 33.898 18.8727C34.9125 18.7482 35.8887 18.4803 36.7883 18.0783C36.1184 19.0928 35.2666 19.9732 34.2809 20.691Z" fill="white"/>
</svg>
